{
    "asset" : {
        "generator" : "Khronos glTF Blender I/O v1.4.40",
        "version" : "2.0"
    },
    "scene" : 0,
    "scenes" : [
        {
            "name" : "Scene",
            "nodes" : [
                4
            ]
        }
    ],
    "nodes" : [
        {
            "mesh" : 0,
            "name" : "Arm.L",
            "translation" : [
                0.7581220269203186,
                0.22816699743270874,
                0
            ]
        },
        {
            "mesh" : 1,
            "name" : "Arm.R",
            "translation" : [
                -0.7581220269203186,
                0.22816699743270874,
                0
            ]
        },
        {
            "mesh" : 2,
            "name" : "Leg.L",
            "translation" : [
                0.3249359726905823,
                -0.7055628895759583,
                0
            ]
        },
        {
            "mesh" : 3,
            "name" : "Leg.R",
            "translation" : [
                -0.3249359726905823,
                -0.7055628895759583,
                0
            ]
        },
        {
            "children" : [
                0,
                1,
                2,
                3
            ],
            "mesh" : 4,
            "name" : "Body"
        }
    ],
    "meshes" : [
        {
            "name" : "Cube.004",
            "primitives" : [
                {
                    "attributes" : {
                        "POSITION" : 0,
                        "NORMAL" : 1,
                        "TANGENT" : 2,
                        "TEXCOORD_0" : 3
                    },
                    "indices" : 4
                }
            ]
        },
        {
            "name" : "Cube.002",
            "primitives" : [
                {
                    "attributes" : {
                        "POSITION" : 5,
                        "NORMAL" : 6,
                        "TANGENT" : 7,
                        "TEXCOORD_0" : 8
                    },
                    "indices" : 9
                }
            ]
        },
        {
            "name" : "Cube.005",
            "primitives" : [
                {
                    "attributes" : {
                        "POSITION" : 10,
                        "NORMAL" : 11,
                        "TANGENT" : 12,
                        "TEXCOORD_0" : 13
                    },
                    "indices" : 14
                }
            ]
        },
        {
            "name" : "Cube.003",
            "primitives" : [
                {
                    "attributes" : {
                        "POSITION" : 15,
                        "NORMAL" : 16,
                        "TANGENT" : 17,
                        "TEXCOORD_0" : 18
                    },
                    "indices" : 19
                }
            ]
        },
        {
            "name" : "Body",
            "primitives" : [
                {
                    "attributes" : {
                        "POSITION" : 20,
                        "NORMAL" : 21,
                        "TANGENT" : 22,
                        "TEXCOORD_0" : 23
                    },
                    "indices" : 24
                }
            ]
        }
    ],
    "accessors" : [
        {
            "bufferView" : 0,
            "componentType" : 5126,
            "count" : 25,
            "max" : [
                0.5030880570411682,
                0.009487941861152649,
                0.0763009637594223
            ],
            "min" : [
                -0.060421884059906006,
                -1.3589084148406982,
                -0.0763009637594223
            ],
            "type" : "VEC3"
        },
        {
            "bufferView" : 1,
            "componentType" : 5126,
            "count" : 25,
            "type" : "VEC3"
        },
        {
            "bufferView" : 2,
            "componentType" : 5126,
            "count" : 25,
            "type" : "VEC4"
        },
        {
            "bufferView" : 3,
            "componentType" : 5126,
            "count" : 25,
            "type" : "VEC2"
        },
        {
            "bufferView" : 4,
            "componentType" : 5123,
            "count" : 42,
            "type" : "SCALAR"
        },
        {
            "bufferView" : 5,
            "componentType" : 5126,
            "count" : 26,
            "max" : [
                0.060421884059906006,
                0.009487941861152649,
                0.0763009637594223
            ],
            "min" : [
                -0.5030880570411682,
                -1.3589084148406982,
                -0.0763009637594223
            ],
            "type" : "VEC3"
        },
        {
            "bufferView" : 6,
            "componentType" : 5126,
            "count" : 26,
            "type" : "VEC3"
        },
        {
            "bufferView" : 7,
            "componentType" : 5126,
            "count" : 26,
            "type" : "VEC4"
        },
        {
            "bufferView" : 8,
            "componentType" : 5126,
            "count" : 26,
            "type" : "VEC2"
        },
        {
            "bufferView" : 9,
            "componentType" : 5123,
            "count" : 42,
            "type" : "SCALAR"
        },
        {
            "bufferView" : 10,
            "componentType" : 5126,
            "count" : 25,
            "max" : [
                0.07350769639015198,
                0,
                0.07350769639015198
            ],
            "min" : [
                -0.07350769639015198,
                -1.3170206546783447,
                -0.07350769639015198
            ],
            "type" : "VEC3"
        },
        {
            "bufferView" : 11,
            "componentType" : 5126,
            "count" : 25,
            "type" : "VEC3"
        },
        {
            "bufferView" : 12,
            "componentType" : 5126,
            "count" : 25,
            "type" : "VEC4"
        },
        {
            "bufferView" : 13,
            "componentType" : 5126,
            "count" : 25,
            "type" : "VEC2"
        },
        {
            "bufferView" : 14,
            "componentType" : 5123,
            "count" : 42,
            "type" : "SCALAR"
        },
        {
            "bufferView" : 15,
            "componentType" : 5126,
            "count" : 25,
            "max" : [
                0.07350769639015198,
                0,
                0.07350769639015198
            ],
            "min" : [
                -0.07350769639015198,
                -1.3170206546783447,
                -0.07350769639015198
            ],
            "type" : "VEC3"
        },
        {
            "bufferView" : 16,
            "componentType" : 5126,
            "count" : 25,
            "type" : "VEC3"
        },
        {
            "bufferView" : 17,
            "componentType" : 5126,
            "count" : 25,
            "type" : "VEC4"
        },
        {
            "bufferView" : 18,
            "componentType" : 5126,
            "count" : 25,
            "type" : "VEC2"
        },
        {
            "bufferView" : 19,
            "componentType" : 5123,
            "count" : 42,
            "type" : "SCALAR"
        },
        {
            "bufferView" : 20,
            "componentType" : 5126,
            "count" : 24,
            "max" : [
                0.7577799558639526,
                0.7577799558639526,
                0.7577799558639526
            ],
            "min" : [
                -0.7577799558639526,
                -0.7577799558639526,
                -0.7577799558639526
            ],
            "type" : "VEC3"
        },
        {
            "bufferView" : 21,
            "componentType" : 5126,
            "count" : 24,
            "type" : "VEC3"
        },
        {
            "bufferView" : 22,
            "componentType" : 5126,
            "count" : 24,
            "type" : "VEC4"
        },
        {
            "bufferView" : 23,
            "componentType" : 5126,
            "count" : 24,
            "type" : "VEC2"
        },
        {
            "bufferView" : 24,
            "componentType" : 5123,
            "count" : 36,
            "type" : "SCALAR"
        }
    ],
    "bufferViews" : [
        {
            "buffer" : 0,
            "byteLength" : 300,
            "byteOffset" : 0
        },
        {
            "buffer" : 0,
            "byteLength" : 300,
            "byteOffset" : 300
        },
        {
            "buffer" : 0,
            "byteLength" : 400,
            "byteOffset" : 600
        },
        {
            "buffer" : 0,
            "byteLength" : 200,
            "byteOffset" : 1000
        },
        {
            "buffer" : 0,
            "byteLength" : 84,
            "byteOffset" : 1200
        },
        {
            "buffer" : 0,
            "byteLength" : 312,
            "byteOffset" : 1284
        },
        {
            "buffer" : 0,
            "byteLength" : 312,
            "byteOffset" : 1596
        },
        {
            "buffer" : 0,
            "byteLength" : 416,
            "byteOffset" : 1908
        },
        {
            "buffer" : 0,
            "byteLength" : 208,
            "byteOffset" : 2324
        },
        {
            "buffer" : 0,
            "byteLength" : 84,
            "byteOffset" : 2532
        },
        {
            "buffer" : 0,
            "byteLength" : 300,
            "byteOffset" : 2616
        },
        {
            "buffer" : 0,
            "byteLength" : 300,
            "byteOffset" : 2916
        },
        {
            "buffer" : 0,
            "byteLength" : 400,
            "byteOffset" : 3216
        },
        {
            "buffer" : 0,
            "byteLength" : 200,
            "byteOffset" : 3616
        },
        {
            "buffer" : 0,
            "byteLength" : 84,
            "byteOffset" : 3816
        },
        {
            "buffer" : 0,
            "byteLength" : 300,
            "byteOffset" : 3900
        },
        {
            "buffer" : 0,
            "byteLength" : 300,
            "byteOffset" : 4200
        },
        {
            "buffer" : 0,
            "byteLength" : 400,
            "byteOffset" : 4500
        },
        {
            "buffer" : 0,
            "byteLength" : 200,
            "byteOffset" : 4900
        },
        {
            "buffer" : 0,
            "byteLength" : 84,
            "byteOffset" : 5100
        },
        {
            "buffer" : 0,
            "byteLength" : 288,
            "byteOffset" : 5184
        },
        {
            "buffer" : 0,
            "byteLength" : 288,
            "byteOffset" : 5472
        },
        {
            "buffer" : 0,
            "byteLength" : 384,
            "byteOffset" : 5760
        },
        {
            "buffer" : 0,
            "byteLength" : 192,
            "byteOffset" : 6144
        },
        {
            "buffer" : 0,
            "byteLength" : 72,
            "byteOffset" : 6336
        }
    ],
    "buffers" : [
        {
            "byteLength" : 6408,
            "uri" : "data:application/octet-stream;base64,"
        }
    ]
}
