{
    "asset" : {
        "generator" : "Khronos glTF Blender I/O v3.2.43",
        "version" : "2.0"
    },
    "scene" : 0,
    "scenes" : [
        {
            "name" : "Scene",
            "nodes" : [
                0
            ]
        }
    ],
    "nodes" : [
        {
            "mesh" : 0,
            "name" : "Plane"
        }
    ],
    "meshes" : [
        {
            "name" : "Plane",
            "primitives" : [
                {
                    "attributes" : {
                        "POSITION" : 0,
                        "NORMAL" : 1,
                        "TANGENT" : 2,
                        "TEXCOORD_0" : 3
                    },
                    "indices" : 4
                }
            ]
        }
    ],
    "accessors" : [
        {
            "bufferView" : 0,
            "componentType" : 5126,
            "count" : 4225,
            "max" : [
                9.925678253173828,
                0,
                9.925678253173828
            ],
            "min" : [
                -9.925678253173828,
                0,
                -9.925678253173828
            ],
            "type" : "VEC3"
        },
        {
            "bufferView" : 1,
            "componentType" : 5126,
            "count" : 4225,
            "type" : "VEC3"
        },
        {
            "bufferView" : 2,
            "componentType" : 5126,
            "count" : 4225,
            "type" : "VEC4"
        },
        {
            "bufferView" : 3,
            "componentType" : 5126,
            "count" : 4225,
            "type" : "VEC2"
        },
        {
            "bufferView" : 4,
            "componentType" : 5123,
            "count" : 24576,
            "type" : "SCALAR"
        }
    ],
    "bufferViews" : [
        {
            "buffer" : 0,
            "byteLength" : 50700,
            "byteOffset" : 0
        },
        {
            "buffer" : 0,
            "byteLength" : 50700,
            "byteOffset" : 50700
        },
        {
            "buffer" : 0,
            "byteLength" : 67600,
            "byteOffset" : 101400
        },
        {
            "buffer" : 0,
            "byteLength" : 33800,
            "byteOffset" : 169000
        },
        {
            "buffer" : 0,
            "byteLength" : 49152,
            "byteOffset" : 202800
        }
    ],
    "buffers" : [
        {
            "byteLength" : 251952,
            "uri" : "data:application/octet-stream;base64,"
        }
    ]
}
