{
    "asset" : {
        "generator" : "Khronos glTF Blender I/O v3.2.43",
        "version" : "2.0"
    },
    "scene" : 0,
    "scenes" : [
        {
            "name" : "Scene",
            "nodes" : [
                0
            ]
        }
    ],
    "nodes" : [
        {
            "mesh" : 0,
            "name" : "Island"
        }
    ],
    "meshes" : [
        {
            "name" : "Island",
            "primitives" : [
                {
                    "attributes" : {
                        "POSITION" : 0,
                        "NORMAL" : 1
                    },
                    "indices" : 2
                }
            ]
        }
    ],
    "accessors" : [
        {
            "bufferView" : 0,
            "componentType" : 5126,
            "count" : 98304,
            "max" : [
                280.8830871582031,
                6.127152442932129,
                265.9942626953125
            ],
            "min" : [
                -280.8226013183594,
                -38.022830963134766,
                -277.5683288574219
            ],
            "type" : "VEC3"
        },
        {
            "bufferView" : 1,
            "componentType" : 5126,
            "count" : 98304,
            "type" : "VEC3"
        },
        {
            "bufferView" : 2,
            "componentType" : 5125,
            "count" : 98304,
            "type" : "SCALAR"
        }
    ],
    "bufferViews" : [
        {
            "buffer" : 0,
            "byteLength" : 1179648,
            "byteOffset" : 0
        },
        {
            "buffer" : 0,
            "byteLength" : 1179648,
            "byteOffset" : 1179648
        },
        {
            "buffer" : 0,
            "byteLength" : 393216,
            "byteOffset" : 2359296
        }
    ],
    "buffers" : [
        {
            "byteLength" : 2752512,
            "uri" : "data:application/octet-stream;base64,"
        }
    ]
}
