{
    "asset" : {
        "generator" : "Khronos glTF Blender I/O v3.2.43",
        "version" : "2.0"
    },
    "scene" : 0,
    "scenes" : [
        {
            "name" : "Scene",
            "nodes" : [
                0
            ]
        }
    ],
    "nodes" : [
        {
            "mesh" : 0,
            "name" : "Suzanne"
        }
    ],
    "meshes" : [
        {
            "name" : "Mesh",
            "primitives" : [
                {
                    "attributes" : {
                        "POSITION" : 0,
                        "NORMAL" : 1,
                        "TANGENT" : 2,
                        "TEXCOORD_0" : 3
                    },
                    "indices" : 4
                }
            ]
        }
    ],
    "accessors" : [
        {
            "bufferView" : 0,
            "componentType" : 5126,
            "count" : 10601,
            "max" : [
                1.328185796737671,
                0.9392362236976624,
                0.8224414587020874
            ],
            "min" : [
                -1.328185796737671,
                -0.971822202205658,
                -0.7782661318778992
            ],
            "type" : "VEC3"
        },
        {
            "bufferView" : 1,
            "componentType" : 5126,
            "count" : 10601,
            "type" : "VEC3"
        },
        {
            "bufferView" : 2,
            "componentType" : 5126,
            "count" : 10601,
            "type" : "VEC4"
        },
        {
            "bufferView" : 3,
            "componentType" : 5126,
            "count" : 10601,
            "type" : "VEC2"
        },
        {
            "bufferView" : 4,
            "componentType" : 5123,
            "count" : 47232,
            "type" : "SCALAR"
        }
    ],
    "bufferViews" : [
        {
            "buffer" : 0,
            "byteLength" : 127212,
            "byteOffset" : 0
        },
        {
            "buffer" : 0,
            "byteLength" : 127212,
            "byteOffset" : 127212
        },
        {
            "buffer" : 0,
            "byteLength" : 169616,
            "byteOffset" : 254424
        },
        {
            "buffer" : 0,
            "byteLength" : 84808,
            "byteOffset" : 424040
        },
        {
            "buffer" : 0,
            "byteLength" : 94464,
            "byteOffset" : 508848
        }
    ],
    "buffers" : [
        {
            "byteLength" : 603312,
            "uri" : "data:application/octet-stream;base64,"
        }
    ]
}
