{
    "asset" : {
        "generator" : "Khronos glTF Blender I/O v3.2.43",
        "version" : "2.0"
    },
    "scene" : 0,
    "scenes" : [
        {
            "name" : "Scene",
            "nodes" : [
                0,
                1,
                2
            ]
        }
    ],
    "nodes" : [
        {
            "mesh" : 0,
            "name" : "Body"
        },
        {
            "mesh" : 1,
            "name" : "Ears"
        },
        {
            "mesh" : 2,
            "name" : "Head"
        }
    ],
    "materials" : [
        {
            "doubleSided" : true,
            "name" : "Material",
            "pbrMetallicRoughness" : {
                "metallicFactor" : 0,
                "roughnessFactor" : 0.4000000059604645
            }
        },
        {
            "doubleSided" : true,
            "name" : "Material.002",
            "pbrMetallicRoughness" : {
                "metallicFactor" : 0,
                "roughnessFactor" : 0.5
            }
        },
        {
            "doubleSided" : true,
            "name" : "Material.005",
            "pbrMetallicRoughness" : {
                "metallicFactor" : 0,
                "roughnessFactor" : 0.5
            }
        },
        {
            "doubleSided" : true,
            "name" : "Material.003",
            "pbrMetallicRoughness" : {
                "metallicFactor" : 0,
                "roughnessFactor" : 0.5
            }
        },
        {
            "doubleSided" : true,
            "name" : "Material.004",
            "pbrMetallicRoughness" : {
                "baseColorFactor" : [
                    0.8000000715255737,
                    0.007129509933292866,
                    0,
                    1
                ],
                "metallicFactor" : 0,
                "roughnessFactor" : 0.5
            }
        }
    ],
    "meshes" : [
        {
            "name" : "Cube",
            "primitives" : [
                {
                    "attributes" : {
                        "POSITION" : 0,
                        "NORMAL" : 1,
                        "TANGENT" : 2,
                        "TEXCOORD_0" : 3
                    },
                    "indices" : 4,
                    "material" : 0
                },
                {
                    "attributes" : {
                        "POSITION" : 5,
                        "NORMAL" : 6,
                        "TANGENT" : 7,
                        "TEXCOORD_0" : 8
                    },
                    "indices" : 9,
                    "material" : 1
                }
            ]
        },
        {
            "name" : "Plane",
            "primitives" : [
                {
                    "attributes" : {
                        "POSITION" : 10,
                        "NORMAL" : 11,
                        "TANGENT" : 12,
                        "TEXCOORD_0" : 13
                    },
                    "indices" : 14,
                    "material" : 2
                }
            ]
        },
        {
            "name" : "Icosphere",
            "primitives" : [
                {
                    "attributes" : {
                        "POSITION" : 15,
                        "NORMAL" : 16,
                        "TANGENT" : 17,
                        "TEXCOORD_0" : 18
                    },
                    "indices" : 19,
                    "material" : 3
                },
                {
                    "attributes" : {
                        "POSITION" : 20,
                        "NORMAL" : 21,
                        "TANGENT" : 22,
                        "TEXCOORD_0" : 23
                    },
                    "indices" : 24,
                    "material" : 4
                }
            ]
        }
    ],
    "accessors" : [
        {
            "bufferView" : 0,
            "componentType" : 5126,
            "count" : 1326,
            "max" : [
                2.6101386547088623,
                2.814188003540039,
                0.1360575258731842
            ],
            "min" : [
                -2.6101386547088623,
                -0.0005605890182778239,
                -0.21206040680408478
            ],
            "type" : "VEC3"
        },
        {
            "bufferView" : 1,
            "componentType" : 5126,
            "count" : 1326,
            "type" : "VEC3"
        },
        {
            "bufferView" : 2,
            "componentType" : 5126,
            "count" : 1326,
            "type" : "VEC4"
        },
        {
            "bufferView" : 3,
            "componentType" : 5126,
            "count" : 1326,
            "type" : "VEC2"
        },
        {
            "bufferView" : 4,
            "componentType" : 5123,
            "count" : 2736,
            "type" : "SCALAR"
        },
        {
            "bufferView" : 5,
            "componentType" : 5126,
            "count" : 40,
            "max" : [
                0.161800816655159,
                2.7283332347869873,
                0.01690000668168068
            ],
            "min" : [
                -0.161800816655159,
                1.7561933994293213,
                -0.023277800530195236
            ],
            "type" : "VEC3"
        },
        {
            "bufferView" : 6,
            "componentType" : 5126,
            "count" : 40,
            "type" : "VEC3"
        },
        {
            "bufferView" : 7,
            "componentType" : 5126,
            "count" : 40,
            "type" : "VEC4"
        },
        {
            "bufferView" : 8,
            "componentType" : 5126,
            "count" : 40,
            "type" : "VEC2"
        },
        {
            "bufferView" : 9,
            "componentType" : 5123,
            "count" : 168,
            "type" : "SCALAR"
        },
        {
            "bufferView" : 10,
            "componentType" : 5126,
            "count" : 8,
            "max" : [
                0.34721410274505615,
                3.0965020656585693,
                0.0011303599458187819
            ],
            "min" : [
                -0.34721410274505615,
                2.9739959239959717,
                0.0011303545907139778
            ],
            "type" : "VEC3"
        },
        {
            "bufferView" : 11,
            "componentType" : 5126,
            "count" : 8,
            "type" : "VEC3"
        },
        {
            "bufferView" : 12,
            "componentType" : 5126,
            "count" : 8,
            "type" : "VEC4"
        },
        {
            "bufferView" : 13,
            "componentType" : 5126,
            "count" : 8,
            "type" : "VEC2"
        },
        {
            "bufferView" : 14,
            "componentType" : 5123,
            "count" : 12,
            "type" : "SCALAR"
        },
        {
            "bufferView" : 15,
            "componentType" : 5126,
            "count" : 250,
            "max" : [
                0.21339760720729828,
                3.264460802078247,
                0.16595396399497986
            ],
            "min" : [
                -0.21339760720729828,
                2.7963805198669434,
                -0.15772578120231628
            ],
            "type" : "VEC3"
        },
        {
            "bufferView" : 16,
            "componentType" : 5126,
            "count" : 250,
            "type" : "VEC3"
        },
        {
            "bufferView" : 17,
            "componentType" : 5126,
            "count" : 250,
            "type" : "VEC4"
        },
        {
            "bufferView" : 18,
            "componentType" : 5126,
            "count" : 250,
            "type" : "VEC2"
        },
        {
            "bufferView" : 19,
            "componentType" : 5123,
            "count" : 528,
            "type" : "SCALAR"
        },
        {
            "bufferView" : 20,
            "componentType" : 5126,
            "count" : 30,
            "max" : [
                0.13673846423625946,
                3.163252830505371,
                0.10238423943519592
            ],
            "min" : [
                -0.13673840463161469,
                2.8639135360717773,
                0.07624372839927673
            ],
            "type" : "VEC3"
        },
        {
            "bufferView" : 21,
            "componentType" : 5126,
            "count" : 30,
            "type" : "VEC3"
        },
        {
            "bufferView" : 22,
            "componentType" : 5126,
            "count" : 30,
            "type" : "VEC4"
        },
        {
            "bufferView" : 23,
            "componentType" : 5126,
            "count" : 30,
            "type" : "VEC2"
        },
        {
            "bufferView" : 24,
            "componentType" : 5123,
            "count" : 30,
            "type" : "SCALAR"
        }
    ],
    "bufferViews" : [
        {
            "buffer" : 0,
            "byteLength" : 15912,
            "byteOffset" : 0
        },
        {
            "buffer" : 0,
            "byteLength" : 15912,
            "byteOffset" : 15912
        },
        {
            "buffer" : 0,
            "byteLength" : 21216,
            "byteOffset" : 31824
        },
        {
            "buffer" : 0,
            "byteLength" : 10608,
            "byteOffset" : 53040
        },
        {
            "buffer" : 0,
            "byteLength" : 5472,
            "byteOffset" : 63648
        },
        {
            "buffer" : 0,
            "byteLength" : 480,
            "byteOffset" : 69120
        },
        {
            "buffer" : 0,
            "byteLength" : 480,
            "byteOffset" : 69600
        },
        {
            "buffer" : 0,
            "byteLength" : 640,
            "byteOffset" : 70080
        },
        {
            "buffer" : 0,
            "byteLength" : 320,
            "byteOffset" : 70720
        },
        {
            "buffer" : 0,
            "byteLength" : 336,
            "byteOffset" : 71040
        },
        {
            "buffer" : 0,
            "byteLength" : 96,
            "byteOffset" : 71376
        },
        {
            "buffer" : 0,
            "byteLength" : 96,
            "byteOffset" : 71472
        },
        {
            "buffer" : 0,
            "byteLength" : 128,
            "byteOffset" : 71568
        },
        {
            "buffer" : 0,
            "byteLength" : 64,
            "byteOffset" : 71696
        },
        {
            "buffer" : 0,
            "byteLength" : 24,
            "byteOffset" : 71760
        },
        {
            "buffer" : 0,
            "byteLength" : 3000,
            "byteOffset" : 71784
        },
        {
            "buffer" : 0,
            "byteLength" : 3000,
            "byteOffset" : 74784
        },
        {
            "buffer" : 0,
            "byteLength" : 4000,
            "byteOffset" : 77784
        },
        {
            "buffer" : 0,
            "byteLength" : 2000,
            "byteOffset" : 81784
        },
        {
            "buffer" : 0,
            "byteLength" : 1056,
            "byteOffset" : 83784
        },
        {
            "buffer" : 0,
            "byteLength" : 360,
            "byteOffset" : 84840
        },
        {
            "buffer" : 0,
            "byteLength" : 360,
            "byteOffset" : 85200
        },
        {
            "buffer" : 0,
            "byteLength" : 480,
            "byteOffset" : 85560
        },
        {
            "buffer" : 0,
            "byteLength" : 240,
            "byteOffset" : 86040
        },
        {
            "buffer" : 0,
            "byteLength" : 60,
            "byteOffset" : 86280
        }
    ],
    "buffers" : [
        {
            "byteLength" : 86340,
            "uri" : "data:application/octet-stream;base64,"
        }
    ]
}
